<?xml version="1.0" encoding="utf-8"?>
<!-- Generator: Adobe Illustrator 24.1.1, SVG Export Plug-In . SVG Version: 6.00 Build 0)  -->
<svg version="1.1" id="Layer_1" xmlns="http://www.w3.org/2000/svg" xmlns:xlink="http://www.w3.org/1999/xlink" x="0px" y="0px"
	 viewBox="0 0 995 102.52" style="enable-background:new 0 0 995 102.52;" xml:space="preserve">
<style type="text/css">
	.st0{fill:#81848A;}
	.st1{fill:#A02A1D;}
	.st2{fill:url(#SVGID_1_);}
	.st3{fill:url(#SVGID_2_);}
</style>
<g>
	<path class="st0" d="M38.01,55.94v-6.45c13.51-2.31,20.27-7.56,20.27-15.73c0-5.62-3.17-8.43-9.49-8.43H29.98H2.35v9.39h27.37
		v14.77v6.45v31.02h1.69h16.8h11.45L38.01,55.94z"/>
	<path class="st1" d="M86.6,83.61L68.47,58.87c2.92-2.2,5.39-4.56,7.39-7.08c4.37-5.5,6.59-11.71,6.59-18.47
		c0-9.61-3.04-17.14-9.05-22.39C67.76,6,59.78,3.5,49.69,3.5H29.98H18.93v9.39h11.05h19.72c15.57,0,23.36,6.81,23.36,20.43
		c0,9.21-6.06,16.84-18.19,22.88l24.16,32.96l6.42,9.58h11.99L86.6,83.61z"/>
	<linearGradient id="SVGID_1_" gradientUnits="userSpaceOnUse" x1="3.513" y1="27.4727" x2="57.0211" y2="42.9823">
		<stop  offset="0" style="stop-color:#81848A"/>
		<stop  offset="1" style="stop-color:#AEB3B8"/>
	</linearGradient>
	<path class="st2" d="M57.7,33.75c0,7.82-6.66,12.92-19.78,15.16L37.43,49v3.65c-2.56-1.85-4.94-3.93-7.12-6.19V34.13H2.93v-8.23
		h45.85C54.78,25.91,57.7,28.47,57.7,33.75z"/>
	<linearGradient id="SVGID_2_" gradientUnits="userSpaceOnUse" x1="24.5022" y1="-0.948" x2="87.5738" y2="55.6614">
		<stop  offset="0" style="stop-color:#A02A1D"/>
		<stop  offset="1" style="stop-color:#EF3829"/>
	</linearGradient>
	<path class="st3" d="M81.86,33.32c0,6.62-2.17,12.72-6.46,18.11c-1.96,2.47-4.41,4.81-7.29,6.97l-0.46,0.35l2.85,3.89
		c-0.69,0.03-1.38,0.04-2.08,0.04c-2.93,0-5.8-0.24-8.6-0.7l-4.09-5.57c11.88-6.08,17.9-13.84,17.9-23.09
		c0-13.94-8.06-21.01-23.95-21.01H19.51V4.08h30.18c9.95,0,17.79,2.45,23.32,7.29C78.89,16.51,81.86,23.89,81.86,33.32z"/>
</g>
<g>
	<g>
		<path class="st1" d="M113.45,40.27c11.2,0,16.8,5.72,16.8,17.16c0,1.52-0.11,3.05-0.32,4.57h-24.5c0,5.2,3.82,7.8,11.46,7.8
			c3.73,0,7.45-0.35,11.18-1.05v7.38c-3.26,0.7-7.22,1.05-11.88,1.05c-13.38,0-20.07-6.29-20.07-18.88
			C96.11,46.29,101.89,40.27,113.45,40.27z M105.43,55.53h15.75v-0.28c0-5.11-2.58-7.66-7.73-7.66
			C108.52,47.59,105.85,50.23,105.43,55.53z"/>
		<path class="st1" d="M168.14,74.97c-5.65,1.48-11.17,2.21-16.56,2.21c-11.93,0-17.89-6.4-17.89-19.2
			c0-11.81,5.84-17.72,17.51-17.72c2.48,0,5.03,0.59,7.63,1.76V26.92h9.32V74.97z M158.83,49.91c-1.92-1.27-4.34-1.9-7.24-1.9
			c-5.79,0-8.68,3.25-8.68,9.74c0,7.71,3.01,11.57,9.04,11.57c2.44,0,4.73-0.34,6.89-1.02V49.91z"/>
		<path class="st1" d="M202.38,76.13c-3.05,0.7-6.21,1.05-9.49,1.05c-13.13,0-19.69-6.39-19.69-19.16
			c0-11.84,6.56-17.75,19.69-17.75c3.28,0,6.45,0.35,9.49,1.05v7.38c-3.05-0.7-5.98-1.05-8.79-1.05c-7.38,0-11.07,3.46-11.07,10.37
			c0,7.85,3.69,11.78,11.07,11.78c2.81,0,5.74-0.35,8.79-1.05V76.13z"/>
		<path class="st1" d="M204.97,58.73c0-12.38,6.09-18.56,18.28-18.56c12.19,0,18.28,6.19,18.28,18.56
			c0,12.35-6.09,18.53-18.28,18.53C211.11,77.26,205.02,71.08,204.97,58.73z M223.25,70.16c5.98,0,8.96-3.86,8.96-11.57
			c0-7.52-2.99-11.29-8.96-11.29s-8.96,3.76-8.96,11.29C214.29,66.3,217.28,70.16,223.25,70.16z"/>
		<path class="st1" d="M246.77,77.19V40.27h7.21l1.16,4.71c3.23-3.14,6.66-4.71,10.27-4.71v7.52c-3.47,0-6.57,1.44-9.32,4.32v25.07
			H246.77z"/>
		<path class="st1" d="M268.87,77.19V40.27h7.21l1.16,5.41c3.54-3.61,7.57-5.41,12.09-5.41c8.74,0,13.11,4.55,13.11,13.64v23.27
			h-9.32V53.91c0-4.08-2.03-6.12-6.08-6.12c-3.02,0-5.98,1.21-8.86,3.62v25.77H268.87z"/>
		<path class="st1" d="M333.65,26.92V69.1h19.97v8.09h-29.29V26.92H333.65z"/>
		<path class="st1" d="M359.2,34.3h6.89l1.41,5.98h9.28v7.38h-8.26v16.98c0,3.45,1.49,5.17,4.46,5.17h3.8v7.38h-8.3
			c-6.19,0-9.28-3.32-9.28-9.95V34.3z"/>
		<path class="st1" d="M414,74.97c-5.65,1.48-11.17,2.21-16.56,2.21c-11.93,0-17.89-6.4-17.89-19.2c0-11.81,5.84-17.72,17.51-17.72
			c2.48,0,5.03,0.59,7.63,1.76V26.92H414V74.97z M404.69,49.91c-1.92-1.27-4.34-1.9-7.24-1.9c-5.79,0-8.68,3.25-8.68,9.74
			c0,7.71,3.01,11.57,9.04,11.57c2.44,0,4.73-0.34,6.89-1.02V49.91z"/>
		<path class="st1" d="M429.43,68.57v8.61h-9.32v-8.61H429.43z"/>
		<path class="st1" d="M464.59,52.05v2.64h-13.18v8.44h12.57v2.64h-12.57v8.79h13.45v2.64h-16.7V52.05H464.59z"/>
		<path class="st1" d="M470.9,73.94v3.25h-3.25v-3.25H470.9z"/>
		<path class="st1" d="M478,52.05v22.5h13.15v2.64h-16.4V52.05H478z"/>
		<path class="st1" d="M496.13,73.94v3.25h-3.25v-3.25H496.13z"/>
		<path class="st1" d="M522.43,52.05l-10.67,25.14h-3.6l-10.72-25.14h3.43l9.21,21.76l8.98-21.76H522.43z"/>
		<path class="st1" d="M531.61,58.82c0-4.51,2.99-6.77,8.96-6.77c2.17,0,4.28,0.29,6.33,0.88v2.64c-2.05-0.59-4.08-0.88-6.1-0.88
			c-3.96,0-5.94,1.35-5.94,4.04c0,2.93,1.49,4.39,4.48,4.39h6.82v-2.5h1.11l1.79,2.5h3.2v2.64h-2.85v2.81
			c0,5.78-3.04,8.67-9.11,8.67c-5.8,0-8.7-2.33-8.7-6.98c0-2.89,1.13-4.85,3.39-5.85C532.74,63.41,531.61,61.55,531.61,58.82z
			 M539.38,65.76c-3.01,0-4.52,1.47-4.52,4.41c0,2.92,1.76,4.38,5.29,4.38c4.01,0,6.01-2,6.01-6.01v-2.78H539.38z"/>
		<path class="st1" d="M562.24,77.19V52.05h3.25l15.38,20.25V52.05h3.08v25.14h-3.25l-15.38-20.43v20.43H562.24z"/>
		<path class="st1" d="M604.59,58.73v18.46h-2.23l-0.56-2.36c-2.24,1.57-4.49,2.36-6.75,2.36c-4.24,0-6.36-2.29-6.36-6.87V58.73
			h3.25v11.64c0,2.74,1.36,4.11,4.08,4.11c1.86,0,3.64-0.78,5.33-2.34V58.73H604.59z"/>
		<path class="st1" d="M612.56,52.05v3.08h-3.25v-3.08H612.56z M612.56,58.73v18.46h-3.25V58.73H612.56z"/>
		<path class="st1" d="M617.11,76.31V73.5c2.17,0.7,4.36,1.05,6.57,1.05c2.94,0,4.41-0.88,4.41-2.64c0-1.64-1.03-2.46-3.08-2.46
			h-2.64c-3.98,0-5.98-1.82-5.98-5.45c0-3.52,2.56-5.27,7.68-5.27c2.2,0,4.39,0.29,6.56,0.88v2.81c-2.17-0.7-4.35-1.05-6.56-1.05
			c-3.07,0-4.61,0.88-4.61,2.64c0,1.64,0.97,2.46,2.9,2.46h2.64c4.22,0,6.33,1.82,6.33,5.45c0,3.52-2.55,5.27-7.66,5.27
			C621.47,77.19,619.28,76.9,617.11,76.31z"/>
		<path class="st1" d="M633.97,71.62c0-3.79,2.5-5.68,7.49-5.68c1.61,0,3.21,0.12,4.82,0.35v-1.74c0-2.12-1.66-3.18-4.97-3.18
			c-1.9,0-3.84,0.29-5.84,0.88v-2.64c1.99-0.59,3.94-0.88,5.84-0.88c5.48,0,8.23,1.91,8.23,5.73v12.73h-1.83l-1.13-1.83
			c-1.84,1.22-3.84,1.83-6.01,1.83C636.16,77.19,633.97,75.33,633.97,71.62z M641.46,68.57c-2.82,0-4.24,1-4.24,2.99
			s1.11,2.99,3.34,2.99c2.25,0,4.15-0.6,5.71-1.79v-3.83C644.67,68.69,643.06,68.57,641.46,68.57z"/>
		<path class="st1" d="M653.9,77.19V58.73h2.2l0.58,2.36c1.89-1.57,3.96-2.36,6.22-2.36c4.61,0,6.91,2.29,6.91,6.87v11.58h-3.25
			V65.55c0-2.74-1.37-4.11-4.1-4.11c-1.86,0-3.63,0.78-5.31,2.34v13.41H653.9z"/>
		<path class="st1" d="M688.06,76.66c-1.52,0.35-3.16,0.53-4.92,0.53c-6.56,0-9.84-3.19-9.84-9.58c0-5.92,3.28-8.88,9.84-8.88
			c1.76,0,3.4,0.18,4.92,0.53v2.64c-1.52-0.35-3.22-0.53-5.1-0.53c-4.28,0-6.42,2.08-6.42,6.24c0,4.63,2.14,6.94,6.42,6.94
			c1.88,0,3.57-0.18,5.1-0.53V76.66z"/>
		<path class="st1" d="M698.91,58.73c5.25,0,7.88,2.6,7.88,7.79c0,0.74-0.05,1.53-0.16,2.37h-12.96c0,3.77,2.2,5.66,6.61,5.66
			c2.1,0,3.96-0.23,5.59-0.7v2.64c-1.63,0.47-3.61,0.7-5.94,0.7c-6.34,0-9.51-3.15-9.51-9.44
			C690.42,61.74,693.25,58.73,698.91,58.73z M693.67,66.18h9.98c-0.07-3.23-1.65-4.85-4.75-4.85
			C695.63,61.33,693.88,62.95,693.67,66.18z"/>
		<path class="st1" d="M740.95,52.05l-10.67,25.14h-3.6l-10.72-25.14h3.43l9.21,21.76l8.98-21.76H740.95z"/>
		<path class="st1" d="M748.54,58.73c5.25,0,7.88,2.6,7.88,7.79c0,0.74-0.05,1.53-0.16,2.37H743.3c0,3.77,2.2,5.66,6.61,5.66
			c2.1,0,3.96-0.23,5.59-0.7v2.64c-1.63,0.47-3.61,0.7-5.94,0.7c-6.34,0-9.51-3.15-9.51-9.44
			C740.05,61.74,742.88,58.73,748.54,58.73z M743.3,66.18h9.98c-0.07-3.23-1.65-4.85-4.75-4.85
			C745.26,61.33,743.51,62.95,743.3,66.18z"/>
		<path class="st1" d="M759.89,77.19V52.05h3.25v8.68c1.57-1.34,3.49-2,5.75-2c4.61,0,6.91,2.29,6.91,6.87v11.58h-3.25V65.55
			c0-2.74-1.37-4.11-4.1-4.11c-1.86,0-3.63,0.78-5.31,2.34v13.41H759.89z"/>
		<path class="st1" d="M783.77,52.05v3.08h-3.25v-3.08H783.77z M783.77,58.73v18.46h-3.25V58.73H783.77z"/>
		<path class="st1" d="M802.39,76.66c-1.52,0.35-3.16,0.53-4.92,0.53c-6.56,0-9.84-3.19-9.84-9.58c0-5.92,3.28-8.88,9.84-8.88
			c1.76,0,3.4,0.18,4.92,0.53v2.64c-1.52-0.35-3.22-0.53-5.1-0.53c-4.28,0-6.42,2.08-6.42,6.24c0,4.63,2.14,6.94,6.42,6.94
			c1.88,0,3.57-0.18,5.1-0.53V76.66z"/>
		<path class="st1" d="M809.04,52.05v25.14h-3.25V52.05H809.04z"/>
		<path class="st1" d="M821.21,58.73c5.25,0,7.88,2.6,7.88,7.79c0,0.74-0.05,1.53-0.16,2.37h-12.96c0,3.77,2.2,5.66,6.61,5.66
			c2.1,0,3.96-0.23,5.59-0.7v2.64c-1.63,0.47-3.61,0.7-5.94,0.7c-6.34,0-9.51-3.15-9.51-9.44
			C812.71,61.74,815.54,58.73,821.21,58.73z M815.97,66.18h9.98c-0.07-3.23-1.65-4.85-4.75-4.85
			C817.92,61.33,816.18,62.95,815.97,66.18z"/>
		<path class="st1" d="M840.45,76.31v-2.99c2.64,0.94,5.48,1.41,8.54,1.41c4.32,0,6.49-1.58,6.49-4.75c0-2.7-1.59-4.04-4.78-4.04
			h-3.23c-5.26,0-7.89-2.29-7.89-6.86c0-4.8,3.37-7.21,10.11-7.21c2.93,0,5.65,0.35,8.17,1.05v2.99c-2.52-0.94-5.24-1.41-8.17-1.41
			c-4.57,0-6.86,1.52-6.86,4.57c0,2.7,1.55,4.04,4.64,4.04h3.23c5.36,0,8.03,2.29,8.03,6.86c0,4.92-3.25,7.38-9.74,7.38
			C845.93,77.36,843.08,77.01,840.45,76.31z"/>
		<path class="st1" d="M862.22,59.49c2.45-0.5,4.98-0.76,7.59-0.76c5.92,0,8.88,2.92,8.88,8.77c0,6.46-2.98,9.69-8.93,9.69
			c-1.48,0-2.91-0.29-4.29-0.88v7.56h-3.25V59.49z M865.47,73.43c1.28,0.63,2.7,0.95,4.27,0.95c3.83,0,5.75-2.3,5.75-6.91
			c0-4.02-1.9-6.03-5.71-6.03c-1.64,0-3.08,0.14-4.31,0.42V73.43z"/>
		<path class="st1" d="M889.8,58.73c5.25,0,7.88,2.6,7.88,7.79c0,0.74-0.05,1.53-0.16,2.37h-12.96c0,3.77,2.2,5.66,6.61,5.66
			c2.1,0,3.96-0.23,5.59-0.7v2.64c-1.63,0.47-3.61,0.7-5.94,0.7c-6.34,0-9.51-3.15-9.51-9.44C881.31,61.74,884.14,58.73,889.8,58.73
			z M884.56,66.18h9.98c-0.07-3.23-1.65-4.85-4.75-4.85C886.52,61.33,884.77,62.95,884.56,66.18z"/>
		<path class="st1" d="M915.04,76.66c-1.52,0.35-3.16,0.53-4.92,0.53c-6.56,0-9.84-3.19-9.84-9.58c0-5.92,3.28-8.88,9.84-8.88
			c1.76,0,3.4,0.18,4.92,0.53v2.64c-1.52-0.35-3.22-0.53-5.1-0.53c-4.28,0-6.42,2.08-6.42,6.24c0,4.63,2.14,6.94,6.42,6.94
			c1.88,0,3.57-0.18,5.1-0.53V76.66z"/>
		<path class="st1" d="M921.87,52.05v3.08h-3.25v-3.08H921.87z M921.87,58.73v18.46h-3.25V58.73H921.87z"/>
		<path class="st1" d="M925.72,71.62c0-3.79,2.5-5.68,7.49-5.68c1.61,0,3.21,0.12,4.82,0.35v-1.74c0-2.12-1.66-3.18-4.97-3.18
			c-1.9,0-3.84,0.29-5.84,0.88v-2.64c1.99-0.59,3.94-0.88,5.84-0.88c5.48,0,8.23,1.91,8.23,5.73v12.73h-1.83l-1.13-1.83
			c-1.84,1.22-3.84,1.83-6.01,1.83C927.91,77.19,925.72,75.33,925.72,71.62z M933.21,68.57c-2.82,0-4.24,1-4.24,2.99
			s1.11,2.99,3.34,2.99c2.25,0,4.15-0.6,5.71-1.79v-3.83C936.42,68.69,934.81,68.57,933.21,68.57z"/>
		<path class="st1" d="M949.08,52.05v25.14h-3.25V52.05H949.08z"/>
		<path class="st1" d="M957.23,52.05v3.08h-3.25v-3.08H957.23z M957.23,58.73v18.46h-3.25V58.73H957.23z"/>
		<path class="st1" d="M961.78,76.31V73.5c2.17,0.7,4.36,1.05,6.57,1.05c2.94,0,4.41-0.88,4.41-2.64c0-1.64-1.03-2.46-3.08-2.46
			h-2.64c-3.98,0-5.98-1.82-5.98-5.45c0-3.52,2.56-5.27,7.68-5.27c2.2,0,4.39,0.29,6.56,0.88v2.81c-2.17-0.7-4.35-1.05-6.56-1.05
			c-3.07,0-4.61,0.88-4.61,2.64c0,1.64,0.97,2.46,2.9,2.46h2.64c4.22,0,6.33,1.82,6.33,5.45c0,3.52-2.55,5.27-7.66,5.27
			C966.14,77.19,963.95,76.9,961.78,76.31z"/>
		<path class="st1" d="M979.51,55.74h2.04l0.7,2.99h4.99v2.64h-4.48v10.6c0,1.72,0.74,2.58,2.23,2.58h2.25v2.64h-3.09
			c-3.09,0-4.64-1.66-4.64-4.97V55.74z"/>
	</g>
</g>
</svg>
